# xmcd
#
# Track frame offsets: 
#        150
#        13968
#        29517
#        49256
#        60083
#        76751
#
# Disc length: 1192 seconds
#
# Revision: 0
# Processed by: cddbd v1.5.2PL0 Copyright (c) Steve Scherf et al.
# Submitted via: ExactAudioCopy v0.95b4
#
DISCID=4004a606
DTITLE=Valerie Smith - Blame It On The Bluegrass
DYEAR=2010
DGENRE=Bluegrass
TTITLE0=Blame It On The Bluegrass
TTITLE1=Where The Sun Never Shines
TTITLE2=Slow Healing Heart
TTITLE3=Four Leaf Clover
TTITLE4=A Good Day , Lord
TTITLE5=No Vacancy
EXTD=
EXTT0=
EXTT1=
EXTT2=
EXTT3=
EXTT4=
EXTT5=
PLAYORDER=
